<svg width="362" height="437" viewBox="0 0 362 437" fill="none" xmlns="http://www.w3.org/2000/svg">
<path d="M181 1L361 88.2509V348.749L181 436L1 348.749V88.2509L181 1Z" fill="#171717" stroke="#333333"/>
<mask id="mask0_9290_50872" style="mask-type:alpha" maskUnits="userSpaceOnUse" x="17" y="20" width="328" height="397">
<path d="M174.04 22.3626C178.437 20.2383 183.563 20.2383 187.96 22.3626L335.96 93.8644C341.488 96.5348 345 102.132 345 108.271V328.729C345 334.868 341.488 340.465 335.96 343.136L187.96 414.637C183.563 416.762 178.437 416.762 174.04 414.637L26.0398 343.136C20.5123 340.465 17 334.868 17 328.729V108.271C17 102.132 20.5123 96.5348 26.0398 93.8644L174.04 22.3626Z" fill="black"/>
</mask>
<g mask="url(#mask0_9290_50872)">
<path d="M174.257 22.8125C178.516 20.7546 183.484 20.7546 187.743 22.8125L335.743 94.3145C341.098 96.9015 344.5 102.325 344.5 108.271V328.729C344.5 334.675 341.098 340.098 335.743 342.686L187.743 414.188C183.484 416.245 178.516 416.245 174.257 414.188L26.2568 342.686C20.9022 340.098 17.5 334.675 17.5 328.729V108.271C17.5 102.325 20.9022 96.9015 26.2568 94.3145L174.257 22.8125Z" stroke="white" stroke-opacity="0.16"/>
</g>
<path opacity="0.24" d="M169.255 12.6885C176.675 9.10385 185.325 9.10384 192.745 12.6885L329.001 78.5163C333.892 80.8793 337 85.8325 337 91.2646L189.266 19.8916C184.044 17.369 177.956 17.369 172.734 19.8916L25 91.2646C25 85.8325 28.108 80.8793 32.9992 78.5163L169.255 12.6885Z" fill="#5C5C5C"/>
</svg>
