<svg width="1440" height="214" viewBox="0 0 1440 214" fill="none" xmlns="http://www.w3.org/2000/svg">
<path fill-rule="evenodd" clip-rule="evenodd" d="M1419.5 15.999L1440 4.28516V5.4375L1420 16.8662V49.2852L1440 60.7129V61.8662L1419.5 50.1523L1392 65.8662V98.2852L1419.5 113.999L1440 102.284V103.438L1420 114.866V147.285L1440 158.713V159.866L1419.5 148.152L1392 163.866V196.285L1419.5 211.999L1440 200.284V201.438L1419.5 213.152L1391.5 197.152L1363.5 213.152L1335.5 197.152L1307.5 213.152L1279.5 197.152L1251.5 213.152L1223.5 197.152L1195.5 213.152L1167.5 197.152L1139.5 213.152L1111.5 197.152L1083.5 213.152L1055.5 197.152L1027.5 213.152L999.5 197.152L971.5 213.152L943.5 197.152L915.5 213.152L887.5 197.152L859.5 213.152L831.5 197.152L803.5 213.152L775.5 197.152L747.5 213.152L719.5 197.152L691.5 213.152L663.5 197.152L635.5 213.152L607.5 197.152L579.5 213.152L551.5 197.152L523.5 213.152L495.5 197.152L467.5 213.152L439.5 197.152L411.5 213.152L383.5 197.152L355.5 213.152L327.5 197.152L299.5 213.152L271.5 197.152L243.5 213.152L215.5 197.152L187.5 213.152L159.5 197.152L131.5 213.152L103.5 197.152L75.5 213.152L47.5 197.152L19.5 213.152L0 202.009V200.856L19.5 211.999L47 196.285V163.866L19.5 148.152L0 159.294V158.142L19 147.285V114.866L0 104.009V102.856L19.5 113.999L47 98.2852V65.8662L19.5 50.1523L0 61.2939V60.1416L19 49.2852V16.8662L0 6.00879V4.85645L19.5 15.999L47.5 0L75.5 15.999L103.5 0L131.5 15.999L159.5 0L187.5 15.999L215.5 0L243.5 15.999L271.5 0L299.5 15.999L327.5 0L355.5 15.999L383.5 0L411.5 15.999L439.5 0L467.5 15.999L495.5 0L523.5 15.999L551.5 0L579.5 15.999L607.5 0L635.5 15.999L663.5 0L691.5 15.999L719.5 0L747.5 15.999L775.5 0L803.5 15.999L831.5 0L859.5 15.999L887.5 0L915.5 15.999L943.5 0L971.5 15.999L999.5 0L1027.5 15.999L1055.5 0L1083.5 15.999L1111.5 0L1139.5 15.999L1167.5 0L1195.5 15.999L1223.5 0L1251.5 15.999L1279.5 0L1307.5 15.999L1335.5 0L1363.5 15.999L1391.5 0L1419.5 15.999ZM48 163.866V196.285L75.5 211.999L103 196.285V163.866L75.5 148.152L48 163.866ZM104 163.866V196.285L131.5 211.999L159 196.285V163.866L131.5 148.152L104 163.866ZM160 163.866V196.285L187.5 211.999L215 196.285V163.866L187.5 148.152L160 163.866ZM216 163.866V196.285L243.5 211.999L271 196.285V163.866L243.5 148.152L216 163.866ZM272 163.866V196.285L299.5 211.999L327 196.285V163.866L299.5 148.152L272 163.866ZM328 163.866V196.285L355.5 211.999L383 196.285V163.866L355.5 148.152L328 163.866ZM384 163.866V196.285L411.5 211.999L439 196.285V163.866L411.5 148.152L384 163.866ZM440 163.866V196.285L467.5 211.999L495 196.285V163.866L467.5 148.152L440 163.866ZM496 163.866V196.285L523.5 211.999L551 196.285V163.866L523.5 148.152L496 163.866ZM552 163.866V196.285L579.5 211.999L607 196.285V163.866L579.5 148.152L552 163.866ZM608 163.866V196.285L635.5 211.999L663 196.285V163.866L635.5 148.152L608 163.866ZM664 163.866V196.285L691.5 211.999L719 196.285V163.866L691.5 148.152L664 163.866ZM720 163.866V196.285L747.5 211.999L775 196.285V163.866L747.5 148.152L720 163.866ZM776 163.866V196.285L803.5 211.999L831 196.285V163.866L803.5 148.152L776 163.866ZM832 163.866V196.285L859.5 211.999L887 196.285V163.866L859.5 148.152L832 163.866ZM888 163.866V196.285L915.5 211.999L943 196.285V163.866L915.5 148.152L888 163.866ZM944 163.866V196.285L971.5 211.999L999 196.285V163.866L971.5 148.152L944 163.866ZM1000 163.866V196.285L1027.5 211.999L1055 196.285V163.866L1027.5 148.152L1000 163.866ZM1056 163.866V196.285L1083.5 211.999L1111 196.285V163.866L1083.5 148.152L1056 163.866ZM1112 163.866V196.285L1139.5 211.999L1167 196.285V163.866L1139.5 148.152L1112 163.866ZM1168 163.866V196.285L1195.5 211.999L1223 196.285V163.866L1195.5 148.152L1168 163.866ZM1224 163.866V196.285L1251.5 211.999L1279 196.285V163.866L1251.5 148.152L1224 163.866ZM1280 163.866V196.285L1307.5 211.999L1335 196.285V163.866L1307.5 148.152L1280 163.866ZM1336 163.866V196.285L1363.5 211.999L1391 196.285V163.866L1363.5 148.152L1336 163.866ZM20 114.866V147.285L47.5 162.999L75 147.285V114.866L47.5 99.1523L20 114.866ZM76 114.866V147.285L103.5 162.999L131 147.285V114.866L103.5 99.1523L76 114.866ZM132 114.866V147.285L159.5 162.999L187 147.285V114.866L159.5 99.1523L132 114.866ZM188 114.866V147.285L215.5 162.999L243 147.285V114.866L215.5 99.1523L188 114.866ZM244 114.866V147.285L271.5 162.999L299 147.285V114.866L271.5 99.1523L244 114.866ZM300 114.866V147.285L327.5 162.999L355 147.285V114.866L327.5 99.1523L300 114.866ZM356 114.866V147.285L383.5 162.999L411 147.285V114.866L383.5 99.1523L356 114.866ZM412 114.866V147.285L439.5 162.999L467 147.285V114.866L439.5 99.1523L412 114.866ZM468 114.866V147.285L495.5 162.999L523 147.285V114.866L495.5 99.1523L468 114.866ZM524 114.866V147.285L551.5 162.999L579 147.285V114.866L551.5 99.1523L524 114.866ZM580 114.866V147.285L607.5 162.999L635 147.285V114.866L607.5 99.1523L580 114.866ZM636 114.866V147.285L663.5 162.999L691 147.285V114.866L663.5 99.1523L636 114.866ZM692 114.866V147.285L719.5 162.999L747 147.285V114.866L719.5 99.1523L692 114.866ZM748 114.866V147.285L775.5 162.999L803 147.285V114.866L775.499 99.1523L748 114.866ZM804 114.866V147.285L831.5 162.999L859 147.285V114.866L831.5 99.1523L804 114.866ZM860 114.866V147.285L887.5 162.999L915 147.285V114.866L887.5 99.1523L860 114.866ZM916 114.866V147.285L943.5 162.999L971 147.285V114.866L943.5 99.1523L916 114.866ZM972 114.866V147.285L999.5 162.999L1027 147.285V114.866L999.5 99.1523L972 114.866ZM1028 114.866V147.285L1055.5 162.999L1083 147.285V114.866L1055.5 99.1523L1028 114.866ZM1084 114.866V147.285L1111.5 162.999L1139 147.285V114.866L1111.5 99.1523L1084 114.866ZM1140 114.866V147.285L1167.5 162.999L1195 147.285V114.866L1167.5 99.1523L1140 114.866ZM1196 114.866V147.285L1223.5 162.999L1251 147.285V114.866L1223.5 99.1523L1196 114.866ZM1252 114.866V147.285L1279.5 162.999L1307 147.285V114.866L1279.5 99.1523L1252 114.866ZM1308 114.866V147.285L1335.5 162.999L1363 147.285V114.866L1335.5 99.1523L1308 114.866ZM1364 114.866V147.285L1391.5 162.999L1419 147.285V114.866L1391.5 99.1523L1364 114.866ZM48 65.8662V98.2852L75.5 113.999L103 98.2852V65.8662L75.5 50.1523L48 65.8662ZM104 65.8662V98.2852L131.5 113.999L159 98.2852V65.8662L131.5 50.1523L104 65.8662ZM160 65.8662V98.2852L187.5 113.999L215 98.2852V65.8662L187.5 50.1523L160 65.8662ZM216 65.8662V98.2852L243.5 113.999L271 98.2852V65.8662L243.5 50.1523L216 65.8662ZM272 65.8662V98.2852L299.5 113.999L327 98.2852V65.8662L299.5 50.1523L272 65.8662ZM328 65.8662V98.2852L355.5 113.999L383 98.2852V65.8662L355.5 50.1523L328 65.8662ZM384 65.8662V98.2852L411.5 113.999L439 98.2852V65.8662L411.5 50.1523L384 65.8662ZM440 65.8662V98.2852L467.5 113.999L495 98.2852V65.8662L467.5 50.1523L440 65.8662ZM496 65.8662V98.2852L523.5 113.999L551 98.2852V65.8662L523.5 50.1523L496 65.8662ZM552 65.8662V98.2852L579.5 113.999L607 98.2852V65.8662L579.5 50.1523L552 65.8662ZM608 65.8662V98.2852L635.5 113.999L663 98.2852V65.8662L635.5 50.1523L608 65.8662ZM664 65.8662V98.2852L691.5 113.999L719 98.2852V65.8662L691.5 50.1523L664 65.8662ZM720 65.8662V98.2852L747.5 113.999L775 98.2852V65.8662L747.5 50.1523L720 65.8662ZM776 65.8662V98.2852L803.5 113.999L831 98.2852V65.8662L803.5 50.1523L776 65.8662ZM832 65.8662V98.2852L859.5 113.999L887 98.2852V65.8662L859.5 50.1523L832 65.8662ZM888 65.8662V98.2852L915.5 113.999L943 98.2852V65.8662L915.5 50.1523L888 65.8662ZM944 65.8662V98.2852L971.5 113.999L999 98.2852V65.8662L971.5 50.1523L944 65.8662ZM1000 65.8662V98.2852L1027.5 113.999L1055 98.2852V65.8662L1027.5 50.1523L1000 65.8662ZM1056 65.8662V98.2852L1083.5 113.999L1111 98.2852V65.8662L1083.5 50.1523L1056 65.8662ZM1112 65.8662V98.2852L1139.5 113.999L1167 98.2852V65.8662L1139.5 50.1523L1112 65.8662ZM1168 65.8662V98.2852L1195.5 113.999L1223 98.2852V65.8662L1195.5 50.1523L1168 65.8662ZM1224 65.8662V98.2852L1251.5 113.999L1279 98.2852V65.8662L1251.5 50.1523L1224 65.8662ZM1280 65.8662V98.2852L1307.5 113.999L1335 98.2852V65.8662L1307.5 50.1523L1280 65.8662ZM1336 65.8662V98.2852L1363.5 113.999L1391 98.2852V65.8662L1363.5 50.1523L1336 65.8662ZM20 16.8662V49.2852L47.5 64.999L75 49.2852V16.8662L47.5 1.15234L20 16.8662ZM76 16.8662V49.2852L103.5 64.999L131 49.2852V16.8662L103.5 1.15234L76 16.8662ZM132 16.8662V49.2852L159.5 64.999L187 49.2852V16.8662L159.5 1.15234L132 16.8662ZM188 16.8662V49.2852L215.5 64.999L243 49.2852V16.8662L215.5 1.15234L188 16.8662ZM244 16.8662V49.2852L271.5 64.999L299 49.2852V16.8662L271.5 1.15234L244 16.8662ZM300 16.8662V49.2852L327.5 64.999L355 49.2852V16.8662L327.5 1.15234L300 16.8662ZM356 16.8662V49.2852L383.5 64.999L411 49.2852V16.8662L383.5 1.15234L356 16.8662ZM412 16.8662V49.2852L439.5 64.999L467 49.2852V16.8662L439.5 1.15234L412 16.8662ZM468 16.8662V49.2852L495.5 64.999L523 49.2852V16.8662L495.5 1.15234L468 16.8662ZM524 16.8662V49.2852L551.5 64.999L579 49.2852V16.8662L551.5 1.15234L524 16.8662ZM580 16.8662V49.2852L607.5 64.999L635 49.2852V16.8662L607.5 1.15234L580 16.8662ZM636 16.8662V49.2852L663.5 64.999L691 49.2852V16.8662L663.5 1.15234L636 16.8662ZM692 16.8662V49.2852L719.5 64.999L747 49.2852V16.8662L719.5 1.15234L692 16.8662ZM748 16.8662V49.2852L775.5 64.999L803 49.2852V16.8662L775.5 1.15234L748 16.8662ZM804 16.8662V49.2852L831.5 64.999L859 49.2852V16.8662L831.5 1.15234L804 16.8662ZM860 16.8662V49.2852L887.5 64.999L915 49.2852V16.8662L887.5 1.15234L860 16.8662ZM916 16.8662V49.2852L943.5 64.999L971 49.2852V16.8662L943.5 1.15234L916 16.8662ZM972 16.8662V49.2852L999.5 64.999L1027 49.2852V16.8662L999.5 1.15234L972 16.8662ZM1028 16.8662V49.2852L1055.5 64.999L1083 49.2852V16.8662L1055.5 1.15234L1028 16.8662ZM1084 16.8662V49.2852L1111.5 64.999L1139 49.2852V16.8662L1111.5 1.15234L1084 16.8662ZM1140 16.8662V49.2852L1167.5 64.999L1195 49.2852V16.8662L1167.5 1.15234L1140 16.8662ZM1196 16.8662V49.2852L1223.5 64.999L1251 49.2852V16.8662L1223.5 1.15234L1196 16.8662ZM1252 16.8662V49.2852L1279.5 64.999L1307 49.2852V16.8662L1279.5 1.15234L1252 16.8662ZM1308 16.8662V49.2852L1335.5 64.999L1363 49.2852V16.8662L1335.5 1.15234L1308 16.8662ZM1364 16.8662V49.2852L1391.5 64.999L1419 49.2852V16.8662L1391.5 1.15234L1364 16.8662Z" fill="url(#paint0_linear_9290_52218)"/>
<path fill-rule="evenodd" clip-rule="evenodd" d="M1419.5 15.999L1440 4.28516V5.4375L1420 16.8662V49.2852L1440 60.7129V61.8662L1419.5 50.1523L1392 65.8662V98.2852L1419.5 113.999L1440 102.284V103.438L1420 114.866V147.285L1440 158.713V159.866L1419.5 148.152L1392 163.866V196.285L1419.5 211.999L1440 200.284V201.438L1419.5 213.152L1391.5 197.152L1363.5 213.152L1335.5 197.152L1307.5 213.152L1279.5 197.152L1251.5 213.152L1223.5 197.152L1195.5 213.152L1167.5 197.152L1139.5 213.152L1111.5 197.152L1083.5 213.152L1055.5 197.152L1027.5 213.152L999.5 197.152L971.5 213.152L943.5 197.152L915.5 213.152L887.5 197.152L859.5 213.152L831.5 197.152L803.5 213.152L775.5 197.152L747.5 213.152L719.5 197.152L691.5 213.152L663.5 197.152L635.5 213.152L607.5 197.152L579.5 213.152L551.5 197.152L523.5 213.152L495.5 197.152L467.5 213.152L439.5 197.152L411.5 213.152L383.5 197.152L355.5 213.152L327.5 197.152L299.5 213.152L271.5 197.152L243.5 213.152L215.5 197.152L187.5 213.152L159.5 197.152L131.5 213.152L103.5 197.152L75.5 213.152L47.5 197.152L19.5 213.152L0 202.009V200.856L19.5 211.999L47 196.285V163.866L19.5 148.152L0 159.294V158.142L19 147.285V114.866L0 104.009V102.856L19.5 113.999L47 98.2852V65.8662L19.5 50.1523L0 61.2939V60.1416L19 49.2852V16.8662L0 6.00879V4.85645L19.5 15.999L47.5 0L75.5 15.999L103.5 0L131.5 15.999L159.5 0L187.5 15.999L215.5 0L243.5 15.999L271.5 0L299.5 15.999L327.5 0L355.5 15.999L383.5 0L411.5 15.999L439.5 0L467.5 15.999L495.5 0L523.5 15.999L551.5 0L579.5 15.999L607.5 0L635.5 15.999L663.5 0L691.5 15.999L719.5 0L747.5 15.999L775.5 0L803.5 15.999L831.5 0L859.5 15.999L887.5 0L915.5 15.999L943.5 0L971.5 15.999L999.5 0L1027.5 15.999L1055.5 0L1083.5 15.999L1111.5 0L1139.5 15.999L1167.5 0L1195.5 15.999L1223.5 0L1251.5 15.999L1279.5 0L1307.5 15.999L1335.5 0L1363.5 15.999L1391.5 0L1419.5 15.999ZM48 163.866V196.285L75.5 211.999L103 196.285V163.866L75.5 148.152L48 163.866ZM104 163.866V196.285L131.5 211.999L159 196.285V163.866L131.5 148.152L104 163.866ZM160 163.866V196.285L187.5 211.999L215 196.285V163.866L187.5 148.152L160 163.866ZM216 163.866V196.285L243.5 211.999L271 196.285V163.866L243.5 148.152L216 163.866ZM272 163.866V196.285L299.5 211.999L327 196.285V163.866L299.5 148.152L272 163.866ZM328 163.866V196.285L355.5 211.999L383 196.285V163.866L355.5 148.152L328 163.866ZM384 163.866V196.285L411.5 211.999L439 196.285V163.866L411.5 148.152L384 163.866ZM440 163.866V196.285L467.5 211.999L495 196.285V163.866L467.5 148.152L440 163.866ZM496 163.866V196.285L523.5 211.999L551 196.285V163.866L523.5 148.152L496 163.866ZM552 163.866V196.285L579.5 211.999L607 196.285V163.866L579.5 148.152L552 163.866ZM608 163.866V196.285L635.5 211.999L663 196.285V163.866L635.5 148.152L608 163.866ZM664 163.866V196.285L691.5 211.999L719 196.285V163.866L691.5 148.152L664 163.866ZM720 163.866V196.285L747.5 211.999L775 196.285V163.866L747.5 148.152L720 163.866ZM776 163.866V196.285L803.5 211.999L831 196.285V163.866L803.5 148.152L776 163.866ZM832 163.866V196.285L859.5 211.999L887 196.285V163.866L859.5 148.152L832 163.866ZM888 163.866V196.285L915.5 211.999L943 196.285V163.866L915.5 148.152L888 163.866ZM944 163.866V196.285L971.5 211.999L999 196.285V163.866L971.5 148.152L944 163.866ZM1000 163.866V196.285L1027.5 211.999L1055 196.285V163.866L1027.5 148.152L1000 163.866ZM1056 163.866V196.285L1083.5 211.999L1111 196.285V163.866L1083.5 148.152L1056 163.866ZM1112 163.866V196.285L1139.5 211.999L1167 196.285V163.866L1139.5 148.152L1112 163.866ZM1168 163.866V196.285L1195.5 211.999L1223 196.285V163.866L1195.5 148.152L1168 163.866ZM1224 163.866V196.285L1251.5 211.999L1279 196.285V163.866L1251.5 148.152L1224 163.866ZM1280 163.866V196.285L1307.5 211.999L1335 196.285V163.866L1307.5 148.152L1280 163.866ZM1336 163.866V196.285L1363.5 211.999L1391 196.285V163.866L1363.5 148.152L1336 163.866ZM20 114.866V147.285L47.5 162.999L75 147.285V114.866L47.5 99.1523L20 114.866ZM76 114.866V147.285L103.5 162.999L131 147.285V114.866L103.5 99.1523L76 114.866ZM132 114.866V147.285L159.5 162.999L187 147.285V114.866L159.5 99.1523L132 114.866ZM188 114.866V147.285L215.5 162.999L243 147.285V114.866L215.5 99.1523L188 114.866ZM244 114.866V147.285L271.5 162.999L299 147.285V114.866L271.5 99.1523L244 114.866ZM300 114.866V147.285L327.5 162.999L355 147.285V114.866L327.5 99.1523L300 114.866ZM356 114.866V147.285L383.5 162.999L411 147.285V114.866L383.5 99.1523L356 114.866ZM412 114.866V147.285L439.5 162.999L467 147.285V114.866L439.5 99.1523L412 114.866ZM468 114.866V147.285L495.5 162.999L523 147.285V114.866L495.5 99.1523L468 114.866ZM524 114.866V147.285L551.5 162.999L579 147.285V114.866L551.5 99.1523L524 114.866ZM580 114.866V147.285L607.5 162.999L635 147.285V114.866L607.5 99.1523L580 114.866ZM636 114.866V147.285L663.5 162.999L691 147.285V114.866L663.5 99.1523L636 114.866ZM692 114.866V147.285L719.5 162.999L747 147.285V114.866L719.5 99.1523L692 114.866ZM748 114.866V147.285L775.5 162.999L803 147.285V114.866L775.499 99.1523L748 114.866ZM804 114.866V147.285L831.5 162.999L859 147.285V114.866L831.5 99.1523L804 114.866ZM860 114.866V147.285L887.5 162.999L915 147.285V114.866L887.5 99.1523L860 114.866ZM916 114.866V147.285L943.5 162.999L971 147.285V114.866L943.5 99.1523L916 114.866ZM972 114.866V147.285L999.5 162.999L1027 147.285V114.866L999.5 99.1523L972 114.866ZM1028 114.866V147.285L1055.5 162.999L1083 147.285V114.866L1055.5 99.1523L1028 114.866ZM1084 114.866V147.285L1111.5 162.999L1139 147.285V114.866L1111.5 99.1523L1084 114.866ZM1140 114.866V147.285L1167.5 162.999L1195 147.285V114.866L1167.5 99.1523L1140 114.866ZM1196 114.866V147.285L1223.5 162.999L1251 147.285V114.866L1223.5 99.1523L1196 114.866ZM1252 114.866V147.285L1279.5 162.999L1307 147.285V114.866L1279.5 99.1523L1252 114.866ZM1308 114.866V147.285L1335.5 162.999L1363 147.285V114.866L1335.5 99.1523L1308 114.866ZM1364 114.866V147.285L1391.5 162.999L1419 147.285V114.866L1391.5 99.1523L1364 114.866ZM48 65.8662V98.2852L75.5 113.999L103 98.2852V65.8662L75.5 50.1523L48 65.8662ZM104 65.8662V98.2852L131.5 113.999L159 98.2852V65.8662L131.5 50.1523L104 65.8662ZM160 65.8662V98.2852L187.5 113.999L215 98.2852V65.8662L187.5 50.1523L160 65.8662ZM216 65.8662V98.2852L243.5 113.999L271 98.2852V65.8662L243.5 50.1523L216 65.8662ZM272 65.8662V98.2852L299.5 113.999L327 98.2852V65.8662L299.5 50.1523L272 65.8662ZM328 65.8662V98.2852L355.5 113.999L383 98.2852V65.8662L355.5 50.1523L328 65.8662ZM384 65.8662V98.2852L411.5 113.999L439 98.2852V65.8662L411.5 50.1523L384 65.8662ZM440 65.8662V98.2852L467.5 113.999L495 98.2852V65.8662L467.5 50.1523L440 65.8662ZM496 65.8662V98.2852L523.5 113.999L551 98.2852V65.8662L523.5 50.1523L496 65.8662ZM552 65.8662V98.2852L579.5 113.999L607 98.2852V65.8662L579.5 50.1523L552 65.8662ZM608 65.8662V98.2852L635.5 113.999L663 98.2852V65.8662L635.5 50.1523L608 65.8662ZM664 65.8662V98.2852L691.5 113.999L719 98.2852V65.8662L691.5 50.1523L664 65.8662ZM720 65.8662V98.2852L747.5 113.999L775 98.2852V65.8662L747.5 50.1523L720 65.8662ZM776 65.8662V98.2852L803.5 113.999L831 98.2852V65.8662L803.5 50.1523L776 65.8662ZM832 65.8662V98.2852L859.5 113.999L887 98.2852V65.8662L859.5 50.1523L832 65.8662ZM888 65.8662V98.2852L915.5 113.999L943 98.2852V65.8662L915.5 50.1523L888 65.8662ZM944 65.8662V98.2852L971.5 113.999L999 98.2852V65.8662L971.5 50.1523L944 65.8662ZM1000 65.8662V98.2852L1027.5 113.999L1055 98.2852V65.8662L1027.5 50.1523L1000 65.8662ZM1056 65.8662V98.2852L1083.5 113.999L1111 98.2852V65.8662L1083.5 50.1523L1056 65.8662ZM1112 65.8662V98.2852L1139.5 113.999L1167 98.2852V65.8662L1139.5 50.1523L1112 65.8662ZM1168 65.8662V98.2852L1195.5 113.999L1223 98.2852V65.8662L1195.5 50.1523L1168 65.8662ZM1224 65.8662V98.2852L1251.5 113.999L1279 98.2852V65.8662L1251.5 50.1523L1224 65.8662ZM1280 65.8662V98.2852L1307.5 113.999L1335 98.2852V65.8662L1307.5 50.1523L1280 65.8662ZM1336 65.8662V98.2852L1363.5 113.999L1391 98.2852V65.8662L1363.5 50.1523L1336 65.8662ZM20 16.8662V49.2852L47.5 64.999L75 49.2852V16.8662L47.5 1.15234L20 16.8662ZM76 16.8662V49.2852L103.5 64.999L131 49.2852V16.8662L103.5 1.15234L76 16.8662ZM132 16.8662V49.2852L159.5 64.999L187 49.2852V16.8662L159.5 1.15234L132 16.8662ZM188 16.8662V49.2852L215.5 64.999L243 49.2852V16.8662L215.5 1.15234L188 16.8662ZM244 16.8662V49.2852L271.5 64.999L299 49.2852V16.8662L271.5 1.15234L244 16.8662ZM300 16.8662V49.2852L327.5 64.999L355 49.2852V16.8662L327.5 1.15234L300 16.8662ZM356 16.8662V49.2852L383.5 64.999L411 49.2852V16.8662L383.5 1.15234L356 16.8662ZM412 16.8662V49.2852L439.5 64.999L467 49.2852V16.8662L439.5 1.15234L412 16.8662ZM468 16.8662V49.2852L495.5 64.999L523 49.2852V16.8662L495.5 1.15234L468 16.8662ZM524 16.8662V49.2852L551.5 64.999L579 49.2852V16.8662L551.5 1.15234L524 16.8662ZM580 16.8662V49.2852L607.5 64.999L635 49.2852V16.8662L607.5 1.15234L580 16.8662ZM636 16.8662V49.2852L663.5 64.999L691 49.2852V16.8662L663.5 1.15234L636 16.8662ZM692 16.8662V49.2852L719.5 64.999L747 49.2852V16.8662L719.5 1.15234L692 16.8662ZM748 16.8662V49.2852L775.5 64.999L803 49.2852V16.8662L775.5 1.15234L748 16.8662ZM804 16.8662V49.2852L831.5 64.999L859 49.2852V16.8662L831.5 1.15234L804 16.8662ZM860 16.8662V49.2852L887.5 64.999L915 49.2852V16.8662L887.5 1.15234L860 16.8662ZM916 16.8662V49.2852L943.5 64.999L971 49.2852V16.8662L943.5 1.15234L916 16.8662ZM972 16.8662V49.2852L999.5 64.999L1027 49.2852V16.8662L999.5 1.15234L972 16.8662ZM1028 16.8662V49.2852L1055.5 64.999L1083 49.2852V16.8662L1055.5 1.15234L1028 16.8662ZM1084 16.8662V49.2852L1111.5 64.999L1139 49.2852V16.8662L1111.5 1.15234L1084 16.8662ZM1140 16.8662V49.2852L1167.5 64.999L1195 49.2852V16.8662L1167.5 1.15234L1140 16.8662ZM1196 16.8662V49.2852L1223.5 64.999L1251 49.2852V16.8662L1223.5 1.15234L1196 16.8662ZM1252 16.8662V49.2852L1279.5 64.999L1307 49.2852V16.8662L1279.5 1.15234L1252 16.8662ZM1308 16.8662V49.2852L1335.5 64.999L1363 49.2852V16.8662L1335.5 1.15234L1308 16.8662ZM1364 16.8662V49.2852L1391.5 64.999L1419 49.2852V16.8662L1391.5 1.15234L1364 16.8662Z" fill="url(#paint1_radial_9290_52218)" fill-opacity="0.24"/>
<defs>
<linearGradient id="paint0_linear_9290_52218" x1="720" y1="0" x2="720" y2="213.152" gradientUnits="userSpaceOnUse">
<stop stop-color="#333333"/>
<stop offset="1" stop-color="#333333" stop-opacity="0"/>
</linearGradient>
<radialGradient id="paint1_radial_9290_52218" cx="0" cy="0" r="1" gradientUnits="userSpaceOnUse" gradientTransform="translate(720) rotate(90) scale(213.152 396.858)">
<stop stop-color="#C9A96E"/>
<stop offset="1" stop-color="#C9A96E" stop-opacity="0"/>
</radialGradient>
</defs>
</svg>
